<svg width="36" height="43" viewBox="0 0 36 43" fill="none" xmlns="http://www.w3.org/2000/svg">
<g id="bars_solid.svg" clip-path="url(#clip0_121_936)">
<path id="Vector" d="M0.00146484 8.60396C0.00146484 7.18174 1.15049 6.03271 2.57272 6.03271H33.4277C34.8499 6.03271 35.999 7.18174 35.999 8.60396C35.999 10.0262 34.8499 11.1752 33.4277 11.1752H2.57272C1.15049 11.1752 0.00146484 10.0262 0.00146484 8.60396ZM0.00146484 21.4602C0.00146484 20.038 1.15049 18.889 2.57272 18.889H33.4277C34.8499 18.889 35.999 20.038 35.999 21.4602C35.999 22.8824 34.8499 24.0315 33.4277 24.0315H2.57272C1.15049 24.0315 0.00146484 22.8824 0.00146484 21.4602ZM35.999 34.3165C35.999 35.7387 34.8499 36.8877 33.4277 36.8877H2.57272C1.15049 36.8877 0.00146484 35.7387 0.00146484 34.3165C0.00146484 32.8942 1.15049 31.7452 2.57272 31.7452H33.4277C34.8499 31.7452 35.999 32.8942 35.999 34.3165Z" fill="#C7FF15"/>
</g>
<defs>
<clipPath id="clip0_121_936">
<rect width="35.9975" height="41.14" fill="white" transform="translate(0.00146484 0.890137)"/>
</clipPath>
</defs>
</svg>
